<svg xmlns="http://www.w3.org/2000/svg" viewBox="0 0 400 220" role="img" aria-label="两人在公园小径上散步">
<defs><linearGradient id="a1" x1="0" y1="0" x2="0" y2="1"><stop offset="0" stop-color="#cfe3d4"/><stop offset="1" stop-color="#8fb59a"/></linearGradient></defs>
<rect width="400" height="220" fill="url(#a1)"/>
<g fill="#5b8a6c" opacity=".55">
<ellipse cx="40" cy="70" rx="45" ry="70"/><ellipse cx="120" cy="40" rx="55" ry="60"/>
<ellipse cx="300" cy="50" rx="60" ry="65"/><ellipse cx="375" cy="80" rx="45" ry="75"/>
</g>
<path d="M170 220 L190 120 L215 120 L245 220 Z" fill="#e6e2d6"/>
<path d="M175 220 L193 130 L212 130 L238 220 Z" fill="#efece2"/>
<g fill="#33465c">
<circle cx="192" cy="128" r="6"/><path d="M186 136 h12 l3 26 h-18 z"/><path d="M189 162 l-2 20 M197 162 l2 20" stroke="#33465c" stroke-width="3"/>
<circle cx="216" cy="126" r="6"/><path d="M210 134 h12 l3 28 h-18 z"/><path d="M213 162 l-2 22 M221 162 l2 22" stroke="#33465c" stroke-width="3"/>
</g>
</svg>
