<svg xmlns="http://www.w3.org/2000/svg" viewBox="0 0 400 220" role="img" aria-label="城市河岸天际线">
<defs><linearGradient id="h1" x1="0" y1="0" x2="0" y2="1"><stop offset="0" stop-color="#9fb6d4"/><stop offset="1" stop-color="#d7e0ec"/></linearGradient></defs>
<rect width="400" height="220" fill="url(#h1)"/>
<g fill="#5f7796" opacity=".9">
<rect x="20" y="90" width="26" height="70"/><rect x="52" y="70" width="20" height="90"/>
<rect x="78" y="105" width="30" height="55"/><rect x="115" y="60" width="18" height="100"/>
<rect x="140" y="95" width="34" height="65"/><rect x="250" y="80" width="24" height="80"/>
<rect x="280" y="55" width="18" height="105"/><rect x="304" y="100" width="30" height="60"/>
<rect x="340" y="75" width="22" height="85"/><rect x="368" y="95" width="24" height="65"/>
</g>
<path d="M174 160 q26 -34 52 0" stroke="#43596f" stroke-width="6" fill="none"/>
<rect x="196" y="115" width="8" height="45" fill="#43596f"/>
<rect y="160" width="400" height="60" fill="#8aa2c0"/>
<g stroke="#fff" stroke-width="2" opacity=".4"><path d="M30 178 h60 M120 192 h80 M230 175 h70 M300 200 h70 M60 205 h90"/></g>
</svg>
