<svg xmlns="http://www.w3.org/2000/svg" viewBox="0 0 400 220" role="img" aria-label="人群穿过斑马线的抽象俯视图">
<defs><linearGradient id="s1" x1="0" y1="0" x2="1" y2="1"><stop offset="0" stop-color="#dfe7f2"/><stop offset="1" stop-color="#b9c6da"/></linearGradient></defs>
<rect width="400" height="220" fill="url(#s1)"/>
<g stroke="#fff" stroke-width="10" opacity=".85">
<path d="M-20 60 L420 20"/><path d="M-20 90 L420 50"/><path d="M-20 120 L420 80"/><path d="M-20 150 L420 110"/><path d="M-20 180 L420 140"/><path d="M-20 210 L420 170"/>
</g>
<g fill="#41536e" opacity=".9">
<circle cx="70" cy="70" r="5"/><rect x="66" y="76" width="8" height="16" rx="4"/>
<circle cx="130" cy="120" r="5"/><rect x="126" y="126" width="8" height="16" rx="4"/>
<circle cx="200" cy="60" r="5"/><rect x="196" y="66" width="8" height="16" rx="4"/>
<circle cx="245" cy="150" r="5"/><rect x="241" y="156" width="8" height="16" rx="4"/>
<circle cx="310" cy="95" r="5"/><rect x="306" y="101" width="8" height="16" rx="4"/>
<circle cx="355" cy="45" r="5"/><rect x="351" y="51" width="8" height="16" rx="4"/>
<circle cx="105" cy="185" r="5"/><rect x="101" y="191" width="8" height="16" rx="4"/>
<circle cx="285" cy="200" r="5"/><rect x="281" y="206" width="8" height="12" rx="4"/>
<circle cx="180" cy="185" r="5"/><rect x="176" y="191" width="8" height="16" rx="4"/>
</g>
</svg>
